<svg xmlns="http://www.w3.org/2000/svg" width="800" height="400" viewBox="0 0 800 400">
  <defs>
    <linearGradient id="aiGrad" x1="0%" y1="0%" x2="100%" y2="100%">
      <stop offset="0%" style="stop-color:#0f172a;stop-opacity:1" />
      <stop offset="100%" style="stop-color:#1e293b;stop-opacity:1" />
    </linearGradient>
  </defs>
  <rect width="800" height="400" fill="url(#aiGrad)"/>
  
  <!-- Header -->
  <rect x="0" y="0" width="800" height="60" fill="#1e293b"/>
  <text x="40" y="35" fill="#3b82f6" font-size="20" font-weight="bold">AI Analytics Dashboard</text>
  
  <!-- Chart 1 -->
  <rect x="50" y="100" width="300" height="200" rx="10" fill="#374151" stroke="#3b82f6" stroke-width="1"/>
  <text x="200" y="125" text-anchor="middle" fill="#e2e8f0" font-size="14">Performance Metrics</text>
  
  <!-- Line Chart -->
  <polyline points="70,250 120,200 170,180 220,160 270,140 320,120" 
            fill="none" stroke="#22c55e" stroke-width="3"/>
  <polyline points="70,270 120,240 170,220 220,200 270,180 320,160" 
            fill="none" stroke="#3b82f6" stroke-width="3"/>
  
  <!-- Chart 2 -->
  <rect x="400" y="100" width="300" height="200" rx="10" fill="#374151" stroke="#a855f7" stroke-width="1"/>
  <text x="550" y="125" text-anchor="middle" fill="#e2e8f0" font-size="14">AI Model Accuracy</text>
  
  <!-- Pie Chart -->
  <circle cx="550" cy="200" r="60" fill="none" stroke="#22c55e" stroke-width="20" 
          stroke-dasharray="188 377" transform="rotate(-90 550 200)"/>
  <circle cx="550" cy="200" r="60" fill="none" stroke="#3b82f6" stroke-width="20" 
          stroke-dasharray="113 377" stroke-dashoffset="-188" transform="rotate(-90 550 200)"/>
  <text x="550" y="205" text-anchor="middle" fill="#e2e8f0" font-size="16" font-weight="bold">94.2%</text>
  
  <!-- Stats Cards -->
  <rect x="50" y="320" width="120" height="60" rx="8" fill="#1f2937"/>
  <text x="110" y="340" text-anchor="middle" fill="#3b82f6" font-size="12">Active Users</text>
  <text x="110" y="360" text-anchor="middle" fill="#e2e8f0" font-size="18" font-weight="bold">12.5K</text>
  
  <rect x="200" y="320" width="120" height="60" rx="8" fill="#1f2937"/>
  <text x="260" y="340" text-anchor="middle" fill="#22c55e" font-size="12">Predictions</text>
  <text x="260" y="360" text-anchor="middle" fill="#e2e8f0" font-size="18" font-weight="bold">98.7%</text>
  
  <rect x="350" y="320" width="120" height="60" rx="8" fill="#1f2937"/>
  <text x="410" y="340" text-anchor="middle" fill="#a855f7" font-size="12">Processing</text>
  <text x="410" y="360" text-anchor="middle" fill="#e2e8f0" font-size="18" font-weight="bold">2.3ms</text>
</svg>